<svg width="63" height="124" viewBox="0 0 63 124" fill="none" xmlns="http://www.w3.org/2000/svg">
<path d="M1 121.17C1 122.181 1.81956 123.003 2.82979 122.973C10.2165 122.751 17.5068 121.189 24.3437 118.357C31.7446 115.291 38.4692 110.798 44.1336 105.133C49.7979 99.4691 54.2912 92.7445 57.3567 85.3436C60.4222 77.9427 62 70.0105 62 61.9999C62 53.9892 60.4221 46.057 57.3566 38.6561C54.291 31.2553 49.7978 24.5307 44.1334 18.8663C38.469 13.202 31.7443 8.70876 24.3435 5.64325C17.5066 2.81135 10.2162 1.24907 2.82949 1.02744C1.81927 0.997129 0.999714 1.81932 0.999718 2.83C0.999722 3.84068 1.81931 4.65695 2.82947 4.68919C9.73545 4.90963 16.55 6.37669 22.9428 9.02466C29.8997 11.9062 36.2208 16.1299 41.5454 21.4544C46.8699 26.7789 51.0936 33.1 53.9752 40.0568C56.8568 47.0136 58.34 54.4699 58.34 61.9999C58.34 69.5299 56.8569 76.9861 53.9753 83.943C51.0937 90.8998 46.8701 97.2209 41.5456 102.545C36.221 107.87 29.8999 112.094 22.9431 114.975C16.5503 117.623 9.73572 119.09 2.82975 119.311C1.81958 119.343 1 120.159 1 121.17Z" fill="url(#paint0_linear_1_3264)"/>
<path d="M1 121.17C1 122.181 1.81956 123.003 2.82979 122.973C10.2165 122.751 17.5068 121.189 24.3437 118.357C31.7446 115.291 38.4692 110.798 44.1336 105.133C49.7979 99.4691 54.2912 92.7445 57.3567 85.3436C60.4222 77.9427 62 70.0105 62 61.9999C62 53.9892 60.4221 46.057 57.3566 38.6561C54.291 31.2553 49.7978 24.5307 44.1334 18.8663C38.469 13.202 31.7443 8.70876 24.3435 5.64325C17.5066 2.81135 10.2162 1.24907 2.82949 1.02744C1.81927 0.997129 0.999714 1.81932 0.999718 2.83C0.999722 3.84068 1.81931 4.65695 2.82947 4.68919C9.73545 4.90963 16.55 6.37669 22.9428 9.02466C29.8997 11.9062 36.2208 16.1299 41.5454 21.4544C46.8699 26.7789 51.0936 33.1 53.9752 40.0568C56.8568 47.0136 58.34 54.4699 58.34 61.9999C58.34 69.5299 56.8569 76.9861 53.9753 83.943C51.0937 90.8998 46.8701 97.2209 41.5456 102.545C36.221 107.87 29.8999 112.094 22.9431 114.975C16.5503 117.623 9.73572 119.09 2.82975 119.311C1.81958 119.343 1 120.159 1 121.17Z" stroke="white" stroke-opacity="0.1"/>
<path d="M1 121.17C1 122.181 1.81956 123.003 2.82979 122.973C10.2165 122.751 17.5068 121.189 24.3437 118.357C31.7446 115.291 38.4692 110.798 44.1336 105.133C49.7979 99.4691 54.2912 92.7445 57.3567 85.3436C60.4222 77.9427 62 70.0105 62 61.9999C62 53.9892 60.4221 46.057 57.3566 38.6561C54.291 31.2553 49.7978 24.5307 44.1334 18.8663C38.469 13.202 31.7443 8.70876 24.3435 5.64325C17.5066 2.81135 10.2162 1.24907 2.82949 1.02744C1.81927 0.997129 0.999714 1.81932 0.999718 2.83C0.999722 3.84068 1.81931 4.65695 2.82947 4.68919C9.73545 4.90963 16.55 6.37669 22.9428 9.02466C29.8997 11.9062 36.2208 16.1299 41.5454 21.4544C46.8699 26.7789 51.0936 33.1 53.9752 40.0568C56.8568 47.0136 58.34 54.4699 58.34 61.9999C58.34 69.5299 56.8569 76.9861 53.9753 83.943C51.0937 90.8998 46.8701 97.2209 41.5456 102.545C36.221 107.87 29.8999 112.094 22.9431 114.975C16.5503 117.623 9.73572 119.09 2.82975 119.311C1.81958 119.343 1 120.159 1 121.17Z" stroke="url(#paint1_linear_1_3264)"/>
<defs>
<linearGradient id="paint0_linear_1_3264" x1="-40.5909" y1="0.999995" x2="62" y2="123" gradientUnits="userSpaceOnUse">
<stop stop-color="white"/>
<stop offset="0.75" stop-color="#285299"/>
</linearGradient>
<linearGradient id="paint1_linear_1_3264" x1="1" y1="-4.71875" x2="1" y2="123" gradientUnits="userSpaceOnUse">
<stop stop-color="#2737CF" stop-opacity="0"/>
<stop offset="1" stop-color="#BDFCFE"/>
</linearGradient>
</defs>
</svg>
