<svg width="60" height="106" viewBox="0 0 60 106" fill="none" xmlns="http://www.w3.org/2000/svg">
<path d="M1.02214 1.60417C1.02214 1.28411 1.28184 1.02434 1.60188 1.02754C13.5023 1.14654 25.0829 4.92689 34.7661 11.8619C44.6064 18.9094 51.9931 28.8611 55.8898 40.3204C59.7864 51.7796 59.9973 64.1714 56.493 75.7567C53.0446 87.1569 46.169 97.2132 36.8079 104.562C36.5562 104.76 36.192 104.712 35.9969 104.458C35.8018 104.205 35.8496 103.841 36.1014 103.643C45.2705 96.4419 52.0053 86.5896 55.3836 75.4211C58.8178 64.0675 58.6111 51.9236 54.7924 40.6935C50.9737 29.4634 43.7347 19.7108 34.0912 12.8042C24.6049 6.01015 13.2602 2.30562 1.60188 2.18666C1.28183 2.18339 1.02214 1.92424 1.02214 1.60417Z" fill="url(#paint0_linear_1_3256)"/>
<path d="M1.02214 1.60417C1.02214 1.28411 1.28184 1.02434 1.60188 1.02754C13.5023 1.14654 25.0829 4.92689 34.7661 11.8619C44.6064 18.9094 51.9931 28.8611 55.8898 40.3204C59.7864 51.7796 59.9973 64.1714 56.493 75.7567C53.0446 87.1569 46.169 97.2132 36.8079 104.562C36.5562 104.76 36.192 104.712 35.9969 104.458C35.8018 104.205 35.8496 103.841 36.1014 103.643C45.2705 96.4419 52.0053 86.5896 55.3836 75.4211C58.8178 64.0675 58.6111 51.9236 54.7924 40.6935C50.9737 29.4634 43.7347 19.7108 34.0912 12.8042C24.6049 6.01015 13.2602 2.30562 1.60188 2.18666C1.28183 2.18339 1.02214 1.92424 1.02214 1.60417Z" stroke="white" stroke-opacity="0.1"/>
<path d="M1.02214 1.60417C1.02214 1.28411 1.28184 1.02434 1.60188 1.02754C13.5023 1.14654 25.0829 4.92689 34.7661 11.8619C44.6064 18.9094 51.9931 28.8611 55.8898 40.3204C59.7864 51.7796 59.9973 64.1714 56.493 75.7567C53.0446 87.1569 46.169 97.2132 36.8079 104.562C36.5562 104.76 36.192 104.712 35.9969 104.458C35.8018 104.205 35.8496 103.841 36.1014 103.643C45.2705 96.4419 52.0053 86.5896 55.3836 75.4211C58.8178 64.0675 58.6111 51.9236 54.7924 40.6935C50.9737 29.4634 43.7347 19.7108 34.0912 12.8042C24.6049 6.01015 13.2602 2.30562 1.60188 2.18666C1.28183 2.18339 1.02214 1.92424 1.02214 1.60417Z" stroke="url(#paint1_linear_1_3256)"/>
<defs>
<linearGradient id="paint0_linear_1_3256" x1="67.2273" y1="82.1453" x2="-69.9555" y2="17.9987" gradientUnits="userSpaceOnUse">
<stop stop-color="white"/>
<stop offset="0.75" stop-color="#285299"/>
</linearGradient>
<linearGradient id="paint1_linear_1_3256" x1="62.2484" y1="42.5721" x2="-54.9562" y2="73.977" gradientUnits="userSpaceOnUse">
<stop stop-color="#2737CF" stop-opacity="0"/>
<stop offset="1" stop-color="#BDFCFE"/>
</linearGradient>
</defs>
</svg>
