<svg width="88" height="32" viewBox="0 0 88 32" fill="none" xmlns="http://www.w3.org/2000/svg">
<path d="M16 6C14.9 6 14 6.9 14 8V11.17L16 13.17L18 11.17V8C18 7.45 17.78 6.95 17.41 6.58C17.05 6.22 16.55 6 16 6Z" stroke="white" stroke-width="1.5" stroke-miterlimit="10" stroke-linecap="round" stroke-linejoin="round"/>
<path d="M14 20.83V24C14 25.1 14.9 26 16 26C17.1 26 18 25.1 18 24V20.83L16 18.83L14 20.83Z" stroke="white" stroke-width="1.5" stroke-miterlimit="10" stroke-linecap="round" stroke-linejoin="round"/>
<path d="M11.17 14H8C6.9 14 6 14.9 6 16C6 17.1 6.9 18 8 18H11.17L13.17 16L11.17 14Z" stroke="white" stroke-width="1.5" stroke-miterlimit="10" stroke-linecap="round" stroke-linejoin="round"/>
<path d="M24.0001 14H20.8301L18.8301 16L20.8301 18H24.0001C24.5501 18 25.0501 17.78 25.4101 17.41C25.7801 17.05 26.0001 16.55 26.0001 16C26.0001 14.9 25.1001 14 24.0001 14Z" stroke="white" stroke-width="1.5" stroke-miterlimit="10" stroke-linecap="round" stroke-linejoin="round"/>
<path d="M23.07 20.24L18.83 16L16 18.83L20.24 23.07C21.02 23.85 22.29 23.85 23.07 23.07C23.85 22.29 23.85 21.02 23.07 20.24Z" stroke="white" stroke-width="1.5" stroke-miterlimit="10" stroke-linecap="round" stroke-linejoin="round"/>
<path d="M11.76 8.92997C11.37 8.53997 10.86 8.33997 10.34 8.33997C9.82997 8.33997 9.31997 8.53997 8.92997 8.92997C8.14997 9.70997 8.14997 10.98 8.92997 11.76L13.17 16L16 13.17L11.76 8.92997Z" stroke="white" stroke-width="1.5" stroke-miterlimit="10" stroke-linecap="round" stroke-linejoin="round"/>
<path d="M8.92997 23.07C8.14997 22.29 8.14997 21.02 8.92997 20.24L20.24 8.92997C21.02 8.14997 22.29 8.14997 23.07 8.92997C23.85 9.70997 23.85 10.98 23.07 11.76L11.76 23.07C10.98 23.85 9.70997 23.85 8.92997 23.07Z" stroke="white" stroke-width="1.5" stroke-miterlimit="10" stroke-linecap="round" stroke-linejoin="round"/>
<path d="M40.2393 13.674C40.1882 13.1584 39.9688 12.7578 39.581 12.4723C39.1932 12.1868 38.6669 12.044 38.0021 12.044C37.5504 12.044 37.169 12.108 36.858 12.2358C36.5469 12.3594 36.3082 12.532 36.142 12.7536C35.9801 12.9751 35.8991 13.2266 35.8991 13.5078C35.8906 13.7422 35.9396 13.9467 36.0462 14.1214C36.157 14.2962 36.3082 14.4474 36.5 14.5753C36.6918 14.6989 36.9134 14.8075 37.1648 14.9013C37.4162 14.9908 37.6847 15.0675 37.9702 15.1314L39.1463 15.4126C39.7173 15.5405 40.2415 15.7109 40.7188 15.924C41.196 16.1371 41.6094 16.3991 41.9588 16.7102C42.3082 17.0213 42.5788 17.3878 42.7706 17.8097C42.9666 18.2315 43.0668 18.7152 43.071 19.2607C43.0668 20.0618 42.8622 20.7564 42.4574 21.3445C42.0568 21.9283 41.4773 22.3821 40.7188 22.706C39.9645 23.0256 39.0547 23.1854 37.9893 23.1854C36.9325 23.1854 36.0121 23.0234 35.228 22.6996C34.4482 22.3757 33.8388 21.8963 33.3999 21.2614C32.9652 20.6222 32.7372 19.8317 32.7159 18.8899H35.3942C35.424 19.3288 35.5497 19.6953 35.7713 19.9893C35.9972 20.2791 36.2976 20.4986 36.6726 20.6477C37.0518 20.7926 37.4801 20.8651 37.9574 20.8651C38.4261 20.8651 38.8331 20.7969 39.1783 20.6605C39.5277 20.5241 39.7983 20.3345 39.9901 20.0916C40.1818 19.8487 40.2777 19.5696 40.2777 19.2543C40.2777 18.9602 40.1903 18.7131 40.0156 18.5128C39.8452 18.3125 39.5938 18.142 39.2614 18.0014C38.9332 17.8608 38.5305 17.733 38.0533 17.6179L36.6278 17.2599C35.5241 16.9915 34.6527 16.5717 34.0135 16.0007C33.3743 15.4297 33.0568 14.6605 33.0611 13.6932C33.0568 12.9006 33.2678 12.2081 33.6939 11.6158C34.1243 11.0234 34.7145 10.5611 35.4645 10.2287C36.2145 9.89631 37.0668 9.73011 38.0213 9.73011C38.9929 9.73011 39.8409 9.89631 40.5653 10.2287C41.294 10.5611 41.8608 11.0234 42.2656 11.6158C42.6705 12.2081 42.8793 12.8942 42.892 13.674H40.2393ZM49.2039 13.1818V15.2273H43.2912V13.1818H49.2039ZM44.6336 10.8295H47.3566V19.983C47.3566 20.2344 47.3949 20.4304 47.4716 20.571C47.5483 20.7074 47.6549 20.8033 47.7912 20.8587C47.9319 20.9141 48.0938 20.9418 48.277 20.9418C48.4049 20.9418 48.5327 20.9311 48.6605 20.9098C48.7884 20.8842 48.8864 20.8651 48.9546 20.8523L49.3828 22.8786C49.2465 22.9212 49.0547 22.9702 48.8076 23.0256C48.5604 23.0852 48.26 23.1214 47.9063 23.1342C47.25 23.1598 46.6748 23.0724 46.1804 22.8722C45.6904 22.6719 45.309 22.3608 45.0363 21.9389C44.7635 21.517 44.6293 20.9844 44.6336 20.3409V10.8295ZM54.4466 23.1918C53.4367 23.1918 52.5674 22.9872 51.8387 22.5781C51.1142 22.1648 50.556 21.581 50.164 20.8267C49.7719 20.0682 49.5759 19.1712 49.5759 18.1357C49.5759 17.1257 49.7719 16.2393 50.164 15.4766C50.556 14.7138 51.1078 14.1193 51.8195 13.6932C52.5354 13.267 53.3749 13.054 54.338 13.054C54.9857 13.054 55.5887 13.1584 56.1469 13.3672C56.7094 13.5717 57.1995 13.8807 57.6171 14.294C58.039 14.7074 58.3671 15.2273 58.6015 15.8537C58.8358 16.4759 58.953 17.2045 58.953 18.0398V18.7876H50.6625V17.1001H56.3898C56.3898 16.7081 56.3046 16.3608 56.1341 16.0582C55.9637 15.7557 55.7272 15.5192 55.4246 15.3487C55.1263 15.174 54.779 15.0866 54.3827 15.0866C53.9694 15.0866 53.6029 15.1825 53.2833 15.3743C52.9679 15.5618 52.7208 15.8153 52.5418 16.1349C52.3628 16.4503 52.2712 16.8018 52.2669 17.1896V18.794C52.2669 19.2798 52.3564 19.6996 52.5354 20.0533C52.7186 20.407 52.9765 20.6797 53.3088 20.8714C53.6412 21.0632 54.0354 21.1591 54.4914 21.1591C54.7939 21.1591 55.0709 21.1165 55.3223 21.0312C55.5738 20.946 55.789 20.8182 55.9679 20.6477C56.1469 20.4773 56.2833 20.2685 56.377 20.0213L58.8955 20.1875C58.7677 20.7926 58.5056 21.321 58.1093 21.7727C57.7172 22.2202 57.2101 22.5696 56.588 22.821C55.9701 23.0682 55.2563 23.1918 54.4466 23.1918ZM62.553 9.90909V23H59.83V9.90909H62.553ZM66.5573 9.90909V23H63.8343V9.90909H66.5573ZM70.6383 23.1854C70.0119 23.1854 69.4537 23.0767 68.9636 22.8594C68.4735 22.6378 68.0858 22.3118 67.8002 21.8814C67.519 21.4467 67.3784 20.9055 67.3784 20.2578C67.3784 19.7124 67.4785 19.2543 67.6788 18.8835C67.8791 18.5128 68.1518 18.2145 68.497 17.9886C68.8422 17.7628 69.2342 17.5923 69.6731 17.4773C70.1163 17.3622 70.5808 17.2812 71.0666 17.2344C71.6376 17.1747 72.0978 17.1193 72.4473 17.0682C72.7967 17.0128 73.0502 16.9318 73.2079 16.8253C73.3656 16.7187 73.4444 16.5611 73.4444 16.3523V16.3139C73.4444 15.9091 73.3166 15.5959 73.0609 15.3743C72.8095 15.1527 72.4515 15.0419 71.987 15.0419C71.497 15.0419 71.1071 15.1506 70.8173 15.3679C70.5275 15.581 70.3358 15.8494 70.242 16.1733L67.7235 15.9688C67.8514 15.3722 68.1028 14.8565 68.4778 14.4219C68.8528 13.983 69.3365 13.6463 69.9288 13.4119C70.5254 13.1733 71.2157 13.054 71.9998 13.054C72.5453 13.054 73.0673 13.1179 73.5659 13.2457C74.0687 13.3736 74.514 13.5717 74.9018 13.8402C75.2939 14.1087 75.6028 14.4538 75.8287 14.8757C76.0545 15.2933 76.1674 15.794 76.1674 16.3778V23H73.5851V21.6385H73.5083C73.3507 21.9453 73.1397 22.2159 72.8755 22.4503C72.6113 22.6804 72.2939 22.8615 71.9231 22.9936C71.5524 23.1214 71.1241 23.1854 70.6383 23.1854ZM71.4181 21.3061C71.8187 21.3061 72.1724 21.2273 72.4792 21.0696C72.786 20.9077 73.0268 20.6903 73.2015 20.4176C73.3762 20.1449 73.4636 19.8359 73.4636 19.4908V18.4489C73.3784 18.5043 73.2612 18.5554 73.112 18.6023C72.9672 18.6449 72.8031 18.6854 72.6199 18.7237C72.4366 18.7578 72.2534 18.7898 72.0701 18.8196C71.8869 18.8452 71.7207 18.8686 71.5716 18.8899C71.252 18.9368 70.9728 19.0114 70.7342 19.1136C70.4956 19.2159 70.3102 19.3544 70.1781 19.5291C70.046 19.6996 69.9799 19.9126 69.9799 20.1683C69.9799 20.5391 70.1142 20.8224 70.3826 21.0185C70.6554 21.2102 71.0005 21.3061 71.4181 21.3061ZM77.38 23V13.1818H80.0199V14.8949H80.1222C80.3012 14.2855 80.6016 13.8253 81.0235 13.5142C81.4453 13.1989 81.9311 13.0412 82.4809 13.0412C82.6172 13.0412 82.7642 13.0497 82.9219 13.0668C83.0796 13.0838 83.2181 13.1072 83.3374 13.1371V15.5533C83.2096 15.5149 83.0327 15.4808 82.8069 15.451C82.581 15.4212 82.3743 15.4062 82.1868 15.4062C81.7863 15.4062 81.4283 15.4936 81.113 15.6683C80.8019 15.8388 80.5547 16.0774 80.3715 16.3842C80.1925 16.6911 80.103 17.0447 80.103 17.4453V23H77.38Z" fill="white"/>
</svg>
