<svg width="150" height="45" viewBox="0 0 150 45" fill="none" xmlns="http://www.w3.org/2000/svg">
<path d="M47.6877 22.056C47.6877 28.7068 51.9589 33.3441 57.8776 33.3441C63.7962 33.3441 68.0674 28.7068 68.0674 22.056C68.0674 15.4051 63.7962 10.7678 57.8776 10.7678C51.9589 10.7678 47.6877 15.4051 47.6877 22.056ZM64.1623 22.056C64.1623 26.8153 61.5691 29.8966 57.8776 29.8966C54.186 29.8966 51.5928 26.8153 51.5928 22.056C51.5928 17.2966 54.186 14.2153 57.8776 14.2153C61.5691 14.2153 64.1623 17.2966 64.1623 22.056Z" fill="white"/>
<path d="M79.0644 33.3441C83.5492 33.3441 86.1119 29.561 86.1119 25.0153C86.1119 20.4695 83.5492 16.6865 79.0644 16.6865C76.9899 16.6865 75.4644 17.5102 74.4577 18.7V16.9915H70.7966V38.5H74.4577V31.3305C75.4644 32.5204 76.9899 33.3441 79.0644 33.3441ZM74.3661 24.5576C74.3661 21.5373 76.0746 19.8899 78.3322 19.8899C80.9865 19.8899 82.4204 21.9644 82.4204 25.0153C82.4204 28.0661 80.9865 30.1407 78.3322 30.1407C76.0746 30.1407 74.3661 28.4627 74.3661 25.5034V24.5576Z" fill="white"/>
<path d="M96.0195 33.3441C99.2229 33.3441 101.755 31.6661 102.884 28.8593L99.7416 27.6695C99.2534 29.317 97.8195 30.2322 96.0195 30.2322C93.6704 30.2322 92.0229 28.5543 91.7483 25.8085H102.975V24.5882C102.975 20.1949 100.504 16.6865 95.867 16.6865C91.2297 16.6865 88.2399 20.317 88.2399 25.0153C88.2399 29.9576 91.4433 33.3441 96.0195 33.3441ZM95.8365 19.7678C98.1551 19.7678 99.2534 21.2932 99.2839 23.0627H91.9314C92.4805 20.8966 93.945 19.7678 95.8365 19.7678Z" fill="white"/>
<path d="M105.722 33.0085H109.383V23.6119C109.383 21.3238 111.061 20.1034 112.709 20.1034C114.722 20.1034 115.516 21.5373 115.516 23.5204V33.0085H119.177V22.4526C119.177 19.0051 117.163 16.6865 113.807 16.6865C111.733 16.6865 110.299 17.6322 109.383 18.7V16.9915H105.722V33.0085Z" fill="white"/>
<path d="M129.899 11.1034L121.601 33.0085H125.475L127.336 28.0051H136.794L138.686 33.0085H142.621L134.323 11.1034H129.899ZM132.035 15.4356L135.513 24.5881H128.618L132.035 15.4356Z" fill="white"/>
<path d="M148.906 11.1669H145.001V33.072H148.906V11.1669Z" fill="white"/>
<path d="M38.7411 19.1487C39.664 16.3788 39.3462 13.3445 37.8704 10.825C35.6509 6.9606 31.189 4.97246 26.8314 5.90806C24.8928 3.72416 22.1077 2.48221 19.1877 2.50001C14.7335 2.48984 10.7814 5.35763 9.41104 9.59577C6.5496 10.1818 4.07969 11.9729 2.63435 14.5114C0.398331 18.3657 0.908076 23.2242 3.89536 26.5292C2.97248 29.2992 3.29028 32.3335 4.76613 34.853C6.98562 38.7174 11.4475 40.7055 15.8051 39.7699C17.7424 41.9538 20.5288 43.1958 23.4488 43.1767C27.9055 43.1881 31.8589 40.3178 33.2293 36.0758C36.0907 35.4898 38.5606 33.6987 40.006 31.1602C42.2394 27.3059 41.7284 22.4513 38.7424 19.1462L38.7411 19.1487ZM23.4513 40.5186C21.6678 40.5212 19.9403 39.897 18.5712 38.7542C18.6335 38.7212 18.7416 38.6614 18.8115 38.6182L26.9115 33.9403C27.3259 33.7051 27.5801 33.264 27.5776 32.7873V21.3682L31.0009 23.3449C31.0377 23.3627 31.0619 23.3983 31.067 23.439V32.8953C31.0619 37.1004 27.6564 40.5097 23.4513 40.5186ZM7.07333 33.5233C6.17969 31.9801 5.85808 30.1712 6.16443 28.4157C6.22418 28.4513 6.32969 28.5161 6.40469 28.5593L14.5047 33.2373C14.9153 33.4775 15.4238 33.4775 15.8356 33.2373L25.7242 27.5271V31.4805C25.7267 31.5212 25.7077 31.5606 25.6759 31.586L17.4882 36.3136C13.8411 38.4136 9.1835 37.1653 7.0746 33.5233H7.07333ZM4.94155 15.8424C5.83138 14.2966 7.23604 13.1144 8.90892 12.5004C8.90892 12.5703 8.90511 12.6936 8.90511 12.7801V22.1373C8.90257 22.6127 9.15681 23.0538 9.56994 23.289L19.4585 28.9979L16.0352 30.9746C16.0009 30.9975 15.9577 31.0013 15.9195 30.9847L7.73053 26.2534C4.09113 24.1458 2.84282 19.4894 4.94028 15.8436L4.94155 15.8424ZM33.0678 22.3877L23.1793 16.6775L26.6026 14.7021C26.6369 14.6792 26.6801 14.6754 26.7182 14.692L34.9072 19.4195C38.553 21.5258 39.8026 26.1898 37.6962 29.8356C36.8051 31.3788 35.4017 32.561 33.7301 33.1763V23.5394C33.7339 23.064 33.481 22.6242 33.0691 22.3877H33.0678ZM36.4746 17.2597C36.4149 17.2229 36.3093 17.1593 36.2343 17.1161L28.1343 12.4381C27.7238 12.1979 27.2153 12.1979 26.8034 12.4381L16.9149 18.1483V14.1949C16.9123 14.1542 16.9314 14.1148 16.9632 14.0894L25.1509 9.36568C28.7979 7.26187 33.4606 8.51399 35.5632 12.1623C36.4517 13.703 36.7733 15.5068 36.4721 17.2597H36.4746ZM15.0538 24.3059L11.6293 22.3292C11.5924 22.3114 11.5682 22.2758 11.5632 22.2352V12.7788C11.5657 8.56865 14.9814 5.15678 19.1916 5.15933C20.9725 5.15933 22.6962 5.78475 24.0653 6.92373C24.003 6.95678 23.8962 7.01653 23.825 7.05975L15.725 11.7377C15.3106 11.9729 15.0564 12.4127 15.0589 12.8894L15.0538 24.3034V24.3059ZM16.9136 20.2966L21.3182 17.753L25.7229 20.2953V25.3814L21.3182 27.9237L16.9136 25.3814V20.2966Z" fill="white"/>
</svg>
