<svg width="16" height="16" viewBox="0 0 16 16" fill="none" xmlns="http://www.w3.org/2000/svg">
<mask id="path-1-inside-1_2246_2913" fill="white">
<path d="M9.26652 7.46552L13.3949 2.66663H12.4166L8.83194 6.83344L5.96888 2.66663H2.66669L6.99619 8.96758L2.66669 14H3.64503L7.43052 9.59966L10.4541 14H13.7563L9.26628 7.46552H9.26652ZM7.92654 9.0231L7.48788 8.39566L3.99754 3.40311H5.50023L8.31696 7.43226L8.75563 8.05969L12.4171 13.297H10.9144L7.92654 9.02334V9.0231Z"/>
</mask>
<path d="M9.26652 7.46552L13.3949 2.66663H12.4166L8.83194 6.83344L5.96888 2.66663H2.66669L6.99619 8.96758L2.66669 14H3.64503L7.43052 9.59966L10.4541 14H13.7563L9.26628 7.46552H9.26652ZM7.92654 9.0231L7.48788 8.39566L3.99754 3.40311H5.50023L8.31696 7.43226L8.75563 8.05969L12.4171 13.297H10.9144L7.92654 9.02334V9.0231Z" fill="white"/>
<path d="M9.26652 7.46552V8.96552H9.95479L10.4036 8.44376L9.26652 7.46552ZM13.3949 2.66663L14.532 3.64486L16.664 1.16663L13.3949 1.16663V2.66663ZM12.4166 2.66663V1.16663H11.7283L11.2795 1.68838L12.4166 2.66663ZM8.83194 6.83344L7.59565 7.6829L8.69874 9.2883L9.96905 7.81168L8.83194 6.83344ZM5.96888 2.66663L7.20517 1.81716L6.75818 1.16663H5.96888V2.66663ZM2.66669 2.66663V1.16663H-0.183962L1.4304 3.5161L2.66669 2.66663ZM6.99619 8.96758L8.13328 9.94586L8.88665 9.07018L8.23247 8.11811L6.99619 8.96758ZM2.66669 14L1.52959 13.0217L-0.602538 15.5H2.66669V14ZM3.64503 14V15.5H4.33329L4.78215 14.9782L3.64503 14ZM7.43052 9.59966L8.6668 8.75018L7.5637 7.14482L6.2934 8.62142L7.43052 9.59966ZM10.4541 14L9.21785 14.8494L9.66484 15.5H10.4541V14ZM13.7563 14V15.5H16.607L14.9926 13.1505L13.7563 14ZM9.26628 7.46552V5.96552H6.4156L8.03001 8.315L9.26628 7.46552ZM7.92654 9.0231H9.42654V8.55073L9.15588 8.16361L7.92654 9.0231ZM7.48788 8.39566L6.25851 9.25512L6.25854 9.25515L7.48788 8.39566ZM3.99754 3.40311V1.90311H1.11867L2.76818 4.26257L3.99754 3.40311ZM5.50023 3.40311L6.7296 2.54367L6.28179 1.90311H5.50023V3.40311ZM8.31696 7.43226L7.08759 8.2917L7.08762 8.29175L8.31696 7.43226ZM8.75563 8.05969L9.98499 7.20023L9.98497 7.2002L8.75563 8.05969ZM12.4171 13.297V14.797H15.2959L13.6464 12.4375L12.4171 13.297ZM10.9144 13.297L9.68503 14.1564L10.1328 14.797H10.9144V13.297ZM7.92654 9.02334H6.42654V9.49569L6.69719 9.88281L7.92654 9.02334ZM9.26652 7.46552L10.4036 8.44376L14.532 3.64486L13.3949 2.66663L12.2578 1.68839L8.1294 6.48728L9.26652 7.46552ZM13.3949 2.66663V1.16663H12.4166V2.66663V4.16663H13.3949V2.66663ZM12.4166 2.66663L11.2795 1.68838L7.69482 5.85519L8.83194 6.83344L9.96905 7.81168L13.5537 3.64487L12.4166 2.66663ZM8.83194 6.83344L10.0682 5.98397L7.20517 1.81716L5.96888 2.66663L4.73259 3.51609L7.59565 7.6829L8.83194 6.83344ZM5.96888 2.66663V1.16663H2.66669V2.66663V4.16663H5.96888V2.66663ZM2.66669 2.66663L1.4304 3.5161L5.75991 9.81706L6.99619 8.96758L8.23247 8.11811L3.90297 1.81715L2.66669 2.66663ZM6.99619 8.96758L5.8591 7.98931L1.52959 13.0217L2.66669 14L3.80378 14.9782L8.13328 9.94586L6.99619 8.96758ZM2.66669 14V15.5H3.64503V14V12.5H2.66669V14ZM3.64503 14L4.78215 14.9782L8.56764 10.5779L7.43052 9.59966L6.2934 8.62142L2.50791 13.0217L3.64503 14ZM7.43052 9.59966L6.19425 10.4492L9.21785 14.8494L10.4541 14L11.6904 13.1505L8.6668 8.75018L7.43052 9.59966ZM10.4541 14V15.5H13.7563V14V12.5H10.4541V14ZM13.7563 14L14.9926 13.1505L10.5026 6.61603L9.26628 7.46552L8.03001 8.315L12.52 14.8494L13.7563 14ZM9.26628 7.46552V8.96552H9.26652V7.46552V5.96552H9.26628V7.46552ZM7.92654 9.0231L9.15588 8.16361L8.71722 7.53617L7.48788 8.39566L6.25854 9.25515L6.6972 9.88259L7.92654 9.0231ZM7.48788 8.39566L8.71724 7.53621L5.22691 2.54365L3.99754 3.40311L2.76818 4.26257L6.25851 9.25512L7.48788 8.39566ZM3.99754 3.40311V4.90311H5.50023V3.40311V1.90311H3.99754V3.40311ZM5.50023 3.40311L4.27085 4.26255L7.08759 8.2917L8.31696 7.43226L9.54634 6.57282L6.7296 2.54367L5.50023 3.40311ZM8.31696 7.43226L7.08762 8.29175L7.52629 8.91918L8.75563 8.05969L9.98497 7.2002L9.5463 6.57277L8.31696 7.43226ZM8.75563 8.05969L7.52627 8.91915L11.1877 14.1564L12.4171 13.297L13.6464 12.4375L9.98499 7.20023L8.75563 8.05969ZM12.4171 13.297V11.797H10.9144V13.297V14.797H12.4171V13.297ZM10.9144 13.297L12.1437 12.4375L9.15589 8.16386L7.92654 9.02334L6.69719 9.88281L9.68503 14.1564L10.9144 13.297ZM7.92654 9.02334H9.42654V9.0231H7.92654H6.42654V9.02334H7.92654Z" fill="white" mask="url(#path-1-inside-1_2246_2913)"/>
</svg>
